<svg width="90" height="90" viewBox="0 0 90 90" fill="none" xmlns="http://www.w3.org/2000/svg">
<path d="M45 56.25C51.2132 56.25 56.25 51.2132 56.25 45C56.25 38.7868 51.2132 33.75 45 33.75C38.7868 33.75 33.75 38.7868 33.75 45C33.75 51.2132 38.7868 56.25 45 56.25Z" stroke="black" stroke-width="2" stroke-linecap="round" stroke-linejoin="round"/>
<path d="M27.1061 62.8945C24.7965 60.5874 22.9576 57.853 21.6921 54.8437C20.3693 51.7305 19.6875 48.3826 19.6875 45C19.6875 41.6174 20.3693 38.2695 21.6921 35.1562C22.9576 32.147 24.7965 29.4126 27.1061 27.1055" stroke="black" stroke-width="2" stroke-linecap="round" stroke-linejoin="round"/>
<path d="M62.894 27.1055C65.2037 29.4126 67.0426 32.147 68.3081 35.1562C69.6309 38.2695 70.3127 41.6174 70.3127 45C70.3127 48.3826 69.6309 51.7305 68.3081 54.8437C67.0426 57.853 65.2037 60.5874 62.894 62.8945" stroke="black" stroke-width="2" stroke-linecap="round" stroke-linejoin="round"/>
<path d="M17.1565 72.8438C13.5694 69.25 10.7051 65.0013 8.71902 60.3281C6.67693 55.4759 5.625 50.2645 5.625 45C5.625 39.7355 6.67693 34.5242 8.71902 29.6719C10.7051 24.9987 13.5694 20.75 17.1565 17.1563" stroke="black" stroke-width="2" stroke-linecap="round" stroke-linejoin="round"/>
<path d="M72.8433 17.1563C76.4304 20.75 79.2947 24.9987 81.2808 29.6719C83.3228 34.5242 84.3748 39.7355 84.3748 45C84.3748 50.2645 83.3228 55.4759 81.2808 60.3281C79.2947 65.0013 76.4304 69.25 72.8433 72.8438" stroke="black" stroke-width="2" stroke-linecap="round" stroke-linejoin="round"/>
</svg>
