<svg width="77" height="77" viewBox="0 0 77 77" fill="none" xmlns="http://www.w3.org/2000/svg">
<path d="M26.4688 69.7812H50.5312" stroke="black" stroke-width="2" stroke-linecap="round" stroke-linejoin="round"/>
<path d="M38.5 60.1562V43.3125" stroke="black" stroke-width="2" stroke-linecap="round" stroke-linejoin="round"/>
<path d="M28.875 33.6875L38.5 43.3125L48.125 33.6875" stroke="black" stroke-width="2" stroke-linecap="round" stroke-linejoin="round"/>
<path d="M23.6717 50.2305C20.8071 48.003 18.4869 45.1528 16.8871 41.8958C15.2872 38.6388 14.4496 35.0604 14.4378 31.4316C14.3776 18.3777 24.8749 7.51953 37.9288 7.21875C42.9809 7.09899 47.9425 8.57288 52.1099 11.4314C56.2773 14.2899 59.4389 18.3879 61.1464 23.1443C62.8539 27.9006 63.0205 33.0738 61.6227 37.9302C60.2249 42.7865 57.3336 47.0796 53.3588 50.2004C52.4808 50.8791 51.7696 51.7496 51.2796 52.7453C50.7895 53.741 50.5337 54.8356 50.5315 55.9453V57.75C50.5315 58.3882 50.278 59.0002 49.8267 59.4515C49.3755 59.9027 48.7634 60.1563 48.1253 60.1563H28.8753C28.2371 60.1563 27.625 59.9027 27.1738 59.4515C26.7225 59.0002 26.469 58.3882 26.469 57.75V55.9453C26.4615 54.8439 26.2061 53.7583 25.7219 52.769C25.2377 51.7797 24.537 50.9121 23.6717 50.2305V50.2305Z" stroke="black" stroke-width="2" stroke-linecap="round" stroke-linejoin="round"/>
</svg>
