<svg width="67" height="67" viewBox="0 0 67 67" fill="none" xmlns="http://www.w3.org/2000/svg">
<path d="M33.4736 18.8438C37.5208 18.8438 40.8018 15.5628 40.8018 11.5156C40.8018 7.46841 37.5208 4.1875 33.4736 4.1875C29.4264 4.1875 26.1455 7.46841 26.1455 11.5156C26.1455 15.5628 29.4264 18.8438 33.4736 18.8438Z" stroke="black" stroke-width="2" stroke-linecap="round" stroke-linejoin="round"/>
<path d="M40.2788 35.2535L49.3866 42.3199C49.9888 42.8211 50.7565 43.0792 51.5391 43.0435C52.3217 43.0077 53.0627 42.6808 53.6166 42.1269C54.1706 41.5729 54.4975 40.8319 54.5332 40.0493C54.5689 39.2667 54.3109 38.499 53.8097 37.8969L43.4456 24.5754C42.9626 24.0875 42.388 23.6999 41.7547 23.4349C41.1214 23.1699 40.4419 23.0327 39.7554 23.0312H27.1929C25.7995 23.0387 24.4649 23.5933 23.4765 24.5754L13.1124 37.8969C12.5728 38.4959 12.2842 39.2795 12.3064 40.0854C12.3286 40.8913 12.6598 41.6579 13.2316 42.2263C13.8034 42.7947 14.5719 43.1214 15.3779 43.1389C16.1839 43.1563 16.9658 42.8631 17.5616 42.3199L26.6695 35.2535L19.3937 58.1801C19.2184 58.5547 19.1186 58.9602 19.1 59.3734C19.0815 59.7866 19.1444 60.1994 19.2854 60.5882C19.4264 60.9771 19.6425 61.3343 19.9215 61.6396C20.2006 61.9449 20.537 62.1923 20.9116 62.3676C21.2863 62.5429 21.6918 62.6426 22.1049 62.6612C22.5181 62.6798 22.9309 62.6168 23.3198 62.4759C23.7086 62.3349 24.0659 62.1187 24.3712 61.8397C24.6765 61.5607 24.9239 61.2242 25.0991 60.8496L33.4741 47.659L41.8491 60.8496C42.0127 61.2406 42.2538 61.5944 42.5577 61.8898C42.8617 62.1851 43.2223 62.4159 43.6178 62.5682C44.0134 62.7205 44.4356 62.7912 44.8592 62.7759C45.2827 62.7607 45.6988 62.6599 46.0824 62.4796C46.4659 62.2993 46.8091 62.0433 47.091 61.7269C47.373 61.4105 47.588 61.0402 47.7231 60.6385C47.8583 60.2368 47.9107 59.8119 47.8772 59.3894C47.8437 58.9669 47.7251 58.5555 47.5284 58.1801L40.2788 35.2535Z" stroke="black" stroke-width="2" stroke-linecap="round" stroke-linejoin="round"/>
</svg>
