<svg width="79" height="79" viewBox="0 0 79 79" fill="none" xmlns="http://www.w3.org/2000/svg">
<path d="M55.5469 12.3438H64.1875C64.8423 12.3438 65.4702 12.6039 65.9332 13.0668C66.3962 13.5298 66.6562 14.1577 66.6562 14.8125V23.4531" stroke="black" stroke-width="2" stroke-linecap="round" stroke-linejoin="round"/>
<path d="M55.5469 66.6562H64.1875C64.8423 66.6562 65.4702 66.3962 65.9332 65.9332C66.3962 65.4702 66.6562 64.8423 66.6562 64.1875V55.5469" stroke="black" stroke-width="2" stroke-linecap="round" stroke-linejoin="round"/>
<path d="M23.4531 66.6562H14.8125C14.1577 66.6562 13.5298 66.3962 13.0668 65.9332C12.6039 65.4702 12.3438 64.8423 12.3438 64.1875V55.5469" stroke="black" stroke-width="2" stroke-linecap="round" stroke-linejoin="round"/>
<path d="M23.4531 12.3438H14.8125C14.1577 12.3438 13.5298 12.6039 13.0668 13.0668C12.6039 13.5298 12.3438 14.1577 12.3438 14.8125V23.4531" stroke="black" stroke-width="2" stroke-linecap="round" stroke-linejoin="round"/>
<path d="M39.5 44.4375C44.9538 44.4375 49.375 40.0163 49.375 34.5625C49.375 29.1087 44.9538 24.6875 39.5 24.6875C34.0462 24.6875 29.625 29.1087 29.625 34.5625C29.625 40.0163 34.0462 44.4375 39.5 44.4375Z" stroke="black" stroke-width="2" stroke-linecap="round" stroke-linejoin="round"/>
<path d="M23.1133 54.3125C24.6914 51.3356 27.0506 48.8449 29.9376 47.1078C32.8246 45.3707 36.1303 44.4528 39.4996 44.4528C42.8689 44.4528 46.1746 45.3707 49.0616 47.1078C51.9486 48.8449 54.3078 51.3356 55.8859 54.3125" stroke="black" stroke-width="2" stroke-linecap="round" stroke-linejoin="round"/>
</svg>
